<?xml version="1.0" encoding="utf-8"?>
<!-- Generator: Adobe Illustrator 21.0.0, SVG Export Plug-In . SVG Version: 6.00 Build 0)  -->
<svg version="1.1" id="图层_1" xmlns="http://www.w3.org/2000/svg" xmlns:xlink="http://www.w3.org/1999/xlink" x="0px" y="0px"
	 viewBox="0 0 281 281" enable-background="new 0 0 281 281" xml:space="preserve">
<g>
	<g>
		<rect x="141.6" y="99.2" fill="#74C9EF" width="56.9" height="165.1"/>
		<path fill="#FFFFFF" d="M140.7,1.1C63.7,1.1,1,63.8,1,140.8c0,67.6,48.2,124.1,112.1,137v-58.9c-32.1-11.4-55.2-42.1-55.2-78
			c0-45.6,37.1-82.8,82.8-82.8s82.8,37.1,82.8,82.8c0,45.4-36.7,82.3-81.9,82.8v56.9c76.6-0.5,138.9-62.9,138.9-139.7
			C280.4,63.8,217.8,1.1,140.7,1.1z"/>
		<g>
			<defs>
				<rect id="SVGID_3_" x="141.6" y="99.2" width="56.9" height="165.1"/>
			</defs>
			<clipPath id="SVGID_1_">
				<use xlink:href="#SVGID_3_"  overflow="visible"/>
			</clipPath>
			<path clip-path="url(#SVGID_1_)" fill="#2CA6E0" d="M90.7,135.1V207c59.4,0,107.8-48.4,107.8-107.8h-71.9
				C126.7,119,110.5,135.1,90.7,135.1z"/>
		</g>
		<path fill="#FFFFFF" d="M113.1,127.7v56.9c47.1,0,85.4-38.3,85.4-85.4h-56.9C141.6,114.9,128.8,127.7,113.1,127.7z"/>
	</g>
</g>
<g>
</g>
<g>
</g>
<g>
</g>
<g>
</g>
<g>
</g>
<g>
</g>
<g>
</g>
<g>
</g>
<g>
</g>
<g>
</g>
<g>
</g>
<g>
</g>
<g>
</g>
<g>
</g>
<g>
</g>
</svg>
