<?xml version="1.0" encoding="utf-8"?>
<!-- Generator: Adobe Illustrator 21.0.0, SVG Export Plug-In . SVG Version: 6.00 Build 0)  -->
<svg version="1.1" id="图层_1" xmlns="http://www.w3.org/2000/svg" xmlns:xlink="http://www.w3.org/1999/xlink" x="0px" y="0px"
	 viewBox="0 0 1195 281" enable-background="new 0 0 1195 281" xml:space="preserve">
<g>
	<g>
		<rect x="141.6" y="99.2" fill="#74C9EF" width="56.9" height="165.1"/>
		<path fill="#FFFFFF" d="M140.7,1.1C63.7,1.1,1,63.8,1,140.8c0,67.6,48.2,124.1,112.1,137v-58.9c-32.1-11.4-55.2-42.1-55.2-78
			c0-45.6,37.1-82.8,82.8-82.8s82.8,37.1,82.8,82.8c0,45.4-36.7,82.3-81.9,82.8v56.9c76.6-0.5,138.9-62.9,138.9-139.7
			C280.4,63.8,217.8,1.1,140.7,1.1z"/>
		<g>
			<defs>
				<rect id="SVGID_3_" x="141.6" y="99.2" width="56.9" height="165.1"/>
			</defs>
			<clipPath id="SVGID_1_">
				<use xlink:href="#SVGID_3_"  overflow="visible"/>
			</clipPath>
			<path clip-path="url(#SVGID_1_)" fill="#2CA6E0" d="M90.7,135.1V207c59.4,0,107.8-48.4,107.8-107.8h-71.9
				C126.7,119,110.5,135.1,90.7,135.1z"/>
		</g>
		<path fill="#FFFFFF" d="M113.1,127.7v56.9c47.1,0,85.4-38.3,85.4-85.4h-56.9C141.6,114.9,128.8,127.7,113.1,127.7z"/>
	</g>
</g>
<g>
	<path fill="#FFFFFF" d="M364.4,77.7h89.7L451.7,96h-36l-17.2,118.9H380L397,96h-35.3L364.4,77.7z"/>
	<path fill="#FFFFFF" d="M437.6,173.6c0-12.9,4.6-24,13.9-33.2c9.3-9.2,20.5-13.8,33.6-13.8c13.1,0,23.9,4.2,32.6,12.5
		c8.7,8.4,13,18.8,13,31.3c0,13.3-4.5,24.3-13.6,33.1c-9,8.8-20.4,13.2-34,13.2c-13.4,0-24.3-4-32.8-12.1
		C441.9,196.6,437.6,186.2,437.6,173.6z M485.7,145c-8.4,0-15.5,2.8-21.2,8.3c-5.7,5.6-8.6,12.2-8.6,19.9c0,7.7,2.4,13.8,7.2,18.4
		c4.8,4.6,11.2,6.9,19.3,6.9c9,0,16.2-2.5,21.8-7.5c5.6-5,8.3-11.6,8.3-19.8c0-7.5-2.5-13.7-7.5-18.7C500,147.5,493.5,145,485.7,145
		z"/>
	<path fill="#FFFFFF" d="M578,128.6l-1.4,9.7c10-7.9,19.5-11.8,28.5-11.8c11,0,20.7,4.3,29,12.9c8.3,8.6,12.5,18.6,12.5,29.8
		c0,13.1-4.4,24.4-13.3,33.9c-8.8,9.5-19.3,14.2-31.5,14.2c-15.7,0-27-7-33.9-21.2l-8.9,60.3h-18.3l18.7-127.9H578z M626.8,169.5
		c0-7.7-2.7-14.3-8-19.9c-5.3-5.6-11.7-8.4-19.2-8.4c-8.8,0-15.9,3.1-21.4,9.2c-5.5,6.1-8.3,14.1-8.3,23.9c0,7.3,2.8,13.8,8.5,19.4
		c5.7,5.6,12.2,8.4,19.7,8.4c7.8,0,14.6-3.2,20.2-9.6C624,186.1,626.8,178.4,626.8,169.5z"/>
	<path fill="#FFFFFF" d="M740.1,77.7h29c12.4,0,22.6,3.7,30.6,11.1c8,7.4,12,16.8,12,28.2c0,10.9-4.4,20.7-13.1,29.2
		c-8.7,8.6-22.8,12.9-42.1,12.9c-3.9,0-7.1-0.1-9.7-0.2l-8.6,56h-18.3L740.1,77.7z M756.2,94l-7.2,48.5c15.5,0,26.6-2.5,33.1-7.6
		s9.8-11.1,9.8-18.1c0-5.3-1.6-9.9-4.7-13.8c-3.1-3.9-6.6-6.3-10.6-7.4C772.6,94.6,765.8,94,756.2,94z"/>
	<path fill="#FFFFFF" d="M818.2,173.6c0-12.9,4.6-24,13.9-33.2c9.3-9.2,20.5-13.8,33.6-13.8c13.1,0,23.9,4.2,32.6,12.5
		c8.7,8.4,13,18.8,13,31.3c0,13.3-4.5,24.3-13.6,33.1c-9,8.8-20.4,13.2-34,13.2c-13.4,0-24.3-4-32.8-12.1
		C822.5,196.6,818.2,186.2,818.2,173.6z M866.4,145c-8.4,0-15.5,2.8-21.2,8.3c-5.7,5.6-8.6,12.2-8.6,19.9c0,7.7,2.4,13.8,7.2,18.4
		c4.8,4.6,11.2,6.9,19.3,6.9c9,0,16.2-2.5,21.8-7.5c5.6-5,8.3-11.6,8.3-19.8c0-7.5-2.5-13.7-7.5-18.7
		C880.6,147.5,874.2,145,866.4,145z"/>
	<path fill="#FFFFFF" d="M940.1,128.6h18.3l-12.3,86.3h-18.3L940.1,128.6z M943.7,89.8c0-3.2,1.1-6,3.4-8.3c2.3-2.3,5.1-3.4,8.3-3.4
		s6,1.1,8.3,3.4c2.3,2.3,3.5,5.1,3.5,8.3c0,3.3-1.1,6.1-3.4,8.4c-2.3,2.3-5.1,3.4-8.4,3.4c-3.2,0-6-1.2-8.3-3.5
		C944.8,95.8,943.7,93.1,943.7,89.8z"/>
	<path fill="#FFFFFF" d="M973.1,214.8l12.6-86.3h18.3l-2,15.3c5.7-5.9,11-10.3,15.8-13.1c4.8-2.9,10-4.3,15.8-4.3
		c6.2,0,11.8,2.6,16.8,7.8c5,5.2,7.4,11,7.4,17.6c0,1.6-0.1,2.8-0.2,3.8l-9.1,59.3h-18.1l8.2-54.9c0.1-0.7,0.2-1.9,0.2-3.6
		c0-4.4-1.3-7.9-3.8-10.7c-2.6-2.7-5.9-4.1-10.1-4.1c-6.6,0-12.6,3.4-17.8,10.3c-5.3,6.9-8.7,16-10.5,27.3l-5.2,35.5H973.1z"/>
	<path fill="#FFFFFF" d="M1097.9,90h18.3l-5.7,38.5h15.9l-2.4,17h-16l-10.3,69.2h-18.5l10.4-69.2H1076l2.5-17h13.6L1097.9,90z"/>
	<path fill="#FFFFFF" d="M1127.3,200.7l10.1-12.8c4.1,4.4,7.8,7.6,11.1,9.7c3.3,2.1,7.1,3.1,11.4,3.1c3.4,0,6.4-0.8,8.7-2.5
		c2.4-1.7,3.6-3.7,3.6-6c0-3.8-3.9-7.9-11.4-12.1c-7.6-4.2-12.9-8.4-16-12.4c-3.1-4.1-4.6-9-4.6-14.8c0-7.3,2.8-13.5,8.4-18.7
		c5.6-5.2,12.3-7.8,20.1-7.8c7.4,0,16.1,3.7,26.2,11.2l-10.1,12.8c-7.3-5-13-7.5-17.2-7.5c-3.2,0-5.8,0.9-7.9,2.8
		c-2.1,1.9-3.1,4.3-3.1,7.1c0,2.4,0.9,4.5,2.8,6.4c1.8,1.9,5.6,4.4,11.4,7.6c5.7,3.2,10.1,6.7,13.1,10.6c3,3.9,4.5,8.6,4.5,14.2
		c0,7.3-2.8,13.4-8.3,18.3c-5.5,4.9-12.5,7.3-21,7.3c-6,0-11.5-1.3-16.4-4C1137.8,210.7,1132.7,206.5,1127.3,200.7z"/>
</g>
<g>
</g>
<g>
</g>
<g>
</g>
<g>
</g>
<g>
</g>
<g>
</g>
<g>
</g>
<g>
</g>
<g>
</g>
<g>
</g>
<g>
</g>
<g>
</g>
<g>
</g>
<g>
</g>
<g>
</g>
</svg>
